PathFileType	4	(X/Y/Z)	 New Session 105.trc
DataRate	CameraRate	NumFrames	NumMarkers	Units	OrigDataRate	OrigDataStartFrame	OrigNumFrames
100	100	24	14	m	100	178	711
Frame#	Time	C7			T8			IJ			PX			AA			AC			AI			TS			SC			GH			LE			ME			US			RS			
		X1	Y1	Z1	X2	Y2	Z2	X3	Y3	Z3	X4	Y4	Z4	X5	Y5	Z5	X6	Y6	Z6	X7	Y7	Z7	X8	Y8	Z8	X9	Y9	Z9	X10	Y10	Z10	X11	Y11	Z11	X12	Y12	Z12	X13	Y13	Z13	X14	Y14	Z14	
178	1.7800	0.022892	0.098588	0.167467	0.027371	-0.118002	0.233012	0.002749	-0.001586	-0.000454	0.008807	-0.142547	-0.071505	0.210971	0.017024	0.161207	0.165892	0.056513	0.084885	0.097831	0.023413	0.207930	0.104128	-0.097726	0.234679	0.027267	0.007870	0.003920	0.225399	0.031348	0.122806	0.317464	-0.251859	0.101280	0.233779	-0.303760	0.113549	0.317099	-0.395435	-0.139528	0.301666	-0.319807	-0.158150	
179	1.7900	0.022777	0.098602	0.167423	0.027326	-0.118012	0.232929	0.002764	-0.001567	-0.000505	0.008834	-0.142504	-0.071571	0.210896	0.017086	0.161207	0.165836	0.056630	0.084860	0.097765	0.023439	0.207917	0.104088	-0.097714	0.234628	0.027245	0.007891	0.003881	0.225350	0.031419	0.122843	0.317691	-0.251692	0.101337	0.233982	-0.303658	0.113488	0.317548	-0.395223	-0.139515	0.301965	-0.319586	-0.158189	
180	1.8000	0.022667	0.098621	0.167370	0.027288	-0.118025	0.232857	0.002774	-0.001549	-0.000557	0.008859	-0.142461	-0.071643	0.210832	0.017141	0.161183	0.165790	0.056698	0.084850	0.097697	0.023471	0.207895	0.104044	-0.097690	0.234569	0.027222	0.007910	0.003838	0.225353	0.031487	0.122853	0.317918	-0.251531	0.101382	0.234140	-0.303572	0.113421	0.317962	-0.395014	-0.139514	0.302270	-0.319371	-0.158224	
181	1.8100	0.022564	0.098630	0.167307	0.027255	-0.118040	0.232800	0.002774	-0.001533	-0.000612	0.008883	-0.142421	-0.071720	0.210775	0.017177	0.161144	0.165747	0.056738	0.084842	0.097626	0.023503	0.207861	0.103995	-0.097660	0.234506	0.027199	0.007924	0.003790	0.225366	0.031544	0.122832	0.318119	-0.251381	0.101409	0.234262	-0.303501	0.113384	0.318334	-0.394824	-0.139528	0.302624	-0.319172	-0.158242	
182	1.8200	0.022470	0.098624	0.167234	0.027225	-0.118050	0.232747	0.002764	-0.001518	-0.000673	0.008906	-0.142387	-0.071802	0.210716	0.017195	0.161100	0.165705	0.056772	0.084825	0.097555	0.023533	0.207822	0.103945	-0.097628	0.234445	0.027177	0.007930	0.003735	0.225334	0.031579	0.122795	0.318270	-0.251245	0.101413	0.234428	-0.303429	0.113340	0.318662	-0.394656	-0.139560	0.303047	-0.319001	-0.158231	
183	1.8300	0.022379	0.098610	0.167157	0.027191	-0.118044	0.232676	0.002745	-0.001505	-0.000741	0.008929	-0.142362	-0.071887	0.210655	0.017207	0.161059	0.165666	0.056805	0.084796	0.097485	0.023562	0.207781	0.103894	-0.097600	0.234384	0.027148	0.007932	0.003673	0.225266	0.031596	0.122748	0.318365	-0.251116	0.101391	0.234688	-0.303344	0.113259	0.318947	-0.394504	-0.139607	0.303527	-0.318862	-0.158193	
184	1.8400	0.022283	0.098606	0.167087	0.027142	-0.118011	0.232553	0.002718	-0.001491	-0.000814	0.008955	-0.142348	-0.071973	0.210603	0.017224	0.161015	0.165624	0.056822	0.084755	0.097416	0.023592	0.207739	0.103844	-0.097577	0.234321	0.027112	0.007940	0.003607	0.225195	0.031613	0.122696	0.318413	-0.250981	0.101345	0.234985	-0.303243	0.113170	0.319198	-0.394360	-0.139659	0.304014	-0.318746	-0.158144	
185	1.8500	0.022175	0.098620	0.167032	0.027071	-0.117940	0.232358	0.002687	-0.001476	-0.000885	0.008985	-0.142345	-0.072059	0.210562	0.017256	0.160949	0.165567	0.056801	0.084709	0.097346	0.023631	0.207696	0.103796	-0.097559	0.234252	0.027071	0.007957	0.003540	0.225134	0.031640	0.122632	0.318448	-0.250826	0.101285	0.235223	-0.303139	0.113113	0.319421	-0.394230	-0.139702	0.304430	-0.318644	-0.158112	
186	1.8600	0.022056	0.098647	0.166980	0.026978	-0.117832	0.232096	0.002659	-0.001462	-0.000949	0.009022	-0.142354	-0.072145	0.210521	0.017305	0.160861	0.165500	0.056759	0.084664	0.097276	0.023681	0.207651	0.103754	-0.097541	0.234178	0.027034	0.007979	0.003474	0.225082	0.031681	0.122552	0.318518	-0.250649	0.101216	0.235381	-0.303046	0.113090	0.319620	-0.394121	-0.139729	0.304734	-0.318549	-0.158112	
187	1.8700	0.021933	0.098670	0.166911	0.026875	-0.117705	0.231806	0.002642	-0.001451	-0.001003	0.009067	-0.142375	-0.072232	0.210483	0.017355	0.160764	0.165436	0.056758	0.084613	0.097209	0.023738	0.207605	0.103718	-0.097517	0.234101	0.027012	0.007995	0.003411	0.225031	0.031730	0.122462	0.318670	-0.250460	0.101146	0.235500	-0.302962	0.113078	0.319790	-0.394038	-0.139748	0.304921	-0.318473	-0.158150	
188	1.8800	0.021816	0.098680	0.166827	0.026779	-0.117590	0.231553	0.002644	-0.001446	-0.001049	0.009118	-0.142406	-0.072318	0.210457	0.017396	0.160663	0.165386	0.056800	0.084550	0.097148	0.023796	0.207560	0.103689	-0.097484	0.234027	0.027009	0.007994	0.003348	0.224980	0.031772	0.122371	0.318911	-0.250276	0.101075	0.235621	-0.302878	0.113056	0.319918	-0.393989	-0.139768	0.305002	-0.318435	-0.158226	
189	1.8900	0.021706	0.098678	0.166744	0.026706	-0.117515	0.231387	0.002660	-0.001449	-0.001091	0.009174	-0.142445	-0.072399	0.210450	0.017438	0.160570	0.165343	0.056845	0.084478	0.097095	0.023849	0.207519	0.103665	-0.097440	0.233961	0.027016	0.007977	0.003284	0.224938	0.031799	0.122286	0.319196	-0.250118	0.100997	0.235756	-0.302794	0.113018	0.320000	-0.393978	-0.139796	0.304990	-0.318444	-0.158335	
190	1.9000	0.021599	0.098671	0.166670	0.026662	-0.117498	0.231332	0.002676	-0.001458	-0.001137	0.009230	-0.142491	-0.072473	0.210472	0.017493	0.160501	0.165298	0.056870	0.084409	0.097047	0.023897	0.207481	0.103647	-0.097386	0.233908	0.027015	0.007954	0.003221	0.224898	0.031811	0.122207	0.319448	-0.249991	0.100907	0.235913	-0.302721	0.112931	0.320050	-0.393994	-0.139828	0.304896	-0.318496	-0.158471	
191	1.9100	0.021487	0.098666	0.166607	0.026649	-0.117539	0.231379	0.002677	-0.001470	-0.001194	0.009280	-0.142540	-0.072538	0.210501	0.017556	0.160454	0.165245	0.056887	0.084348	0.097001	0.023942	0.207446	0.103630	-0.097323	0.233869	0.026989	0.007937	0.003163	0.224851	0.031819	0.122131	0.319602	-0.249892	0.100801	0.236102	-0.302670	0.112743	0.320098	-0.394024	-0.139856	0.304748	-0.318574	-0.158618	
192	1.9200	0.021364	0.098668	0.166553	0.026658	-0.117625	0.231497	0.002655	-0.001481	-0.001263	0.009321	-0.142587	-0.072595	0.210470	0.017595	0.160392	0.165188	0.056919	0.084297	0.096949	0.023989	0.207412	0.103613	-0.097253	0.233846	0.026935	0.007935	0.003110	0.224793	0.031833	0.122063	0.319641	-0.249806	0.100677	0.236321	-0.302649	0.112428	0.320158	-0.394067	-0.139874	0.304588	-0.318654	-0.158757	
193	1.9300	0.021230	0.098675	0.166505	0.026678	-0.117728	0.231635	0.002615	-0.001490	-0.001346	0.009353	-0.142627	-0.072650	0.210364	0.017603	0.160306	0.165131	0.056974	0.084250	0.096885	0.024039	0.207377	0.103593	-0.097180	0.233832	0.026865	0.007946	0.003056	0.224719	0.031854	0.122011	0.319597	-0.249723	0.100538	0.236540	-0.302643	0.112080	0.320230	-0.394133	-0.139878	0.304446	-0.318725	-0.158876	
194	1.9400	0.021090	0.098685	0.166456	0.026693	-0.117816	0.231743	0.002568	-0.001497	-0.001438	0.009376	-0.142656	-0.072711	0.210255	0.017608	0.160215	0.165069	0.057033	0.084197	0.096812	0.024093	0.207337	0.103568	-0.097108	0.233819	0.026796	0.007960	0.002996	0.224632	0.031871	0.121976	0.319534	-0.249631	0.100388	0.236720	-0.302606	0.111883	0.320320	-0.394217	-0.139871	0.304331	-0.318792	-0.158973	
195	1.9500	0.020957	0.098697	0.166396	0.026693	-0.117871	0.231790	0.002525	-0.001505	-0.001535	0.009394	-0.142668	-0.072785	0.210186	0.017611	0.160122	0.165007	0.057071	0.084133	0.096739	0.024148	0.207293	0.103540	-0.097040	0.233802	0.026740	0.007965	0.002928	0.224552	0.031868	0.121945	0.319517	-0.249522	0.100236	0.236865	-0.302511	0.111915	0.320427	-0.394309	-0.139854	0.304254	-0.318867	-0.159044	
196	1.9600	0.020836	0.098707	0.166324	0.026675	-0.117888	0.231781	0.002482	-0.001512	-0.001635	0.009410	-0.142665	-0.072874	0.210141	0.017595	0.160016	0.164951	0.057077	0.084054	0.096678	0.024206	0.207245	0.103510	-0.096974	0.233780	0.026695	0.007958	0.002851	0.224480	0.031832	0.121894	0.319592	-0.249384	0.100100	0.237022	-0.302377	0.112093	0.320543	-0.394404	-0.139825	0.304237	-0.318963	-0.159082	
197	1.9700	0.020728	0.098715	0.166243	0.026642	-0.117878	0.231738	0.002434	-0.001519	-0.001738	0.009425	-0.142649	-0.072973	0.210101	0.017545	0.159889	0.164907	0.057054	0.083960	0.096635	0.024268	0.207193	0.103482	-0.096908	0.233757	0.026654	0.007947	0.002768	0.224398	0.031758	0.121806	0.319774	-0.249205	0.099993	0.237257	-0.302248	0.112256	0.320654	-0.394496	-0.139779	0.304307	-0.319081	-0.159080	
198	1.9800	0.020631	0.098722	0.166164	0.026600	-0.117852	0.231687	0.002377	-0.001523	-0.001845	0.009439	-0.142625	-0.073079	0.210064	0.017469	0.159739	0.164873	0.057029	0.083856	0.096611	0.024341	0.207138	0.103457	-0.096838	0.233738	0.026613	0.007943	0.002682	0.224298	0.031656	0.121683	0.320048	-0.248978	0.099926	0.237611	-0.302143	0.112338	0.320748	-0.394578	-0.139714	0.304473	-0.319206	-0.159041	
199	1.9900	0.020543	0.098736	0.166092	0.026553	-0.117821	0.231646	0.002311	-0.001524	-0.001960	0.009454	-0.142595	-0.073190	0.210022	0.017386	0.159560	0.164833	0.057018	0.083737	0.096597	0.024427	0.207080	0.103433	-0.096763	0.233727	0.026569	0.007946	0.002590	0.224193	0.031554	0.121532	0.320389	-0.248699	0.099894	0.238094	-0.302047	0.112392	0.320819	-0.394641	-0.139630	0.304710	-0.319316	-0.158985	
200	2.0000	0.020463	0.098763	0.166023	0.026504	-0.117792	0.231625	0.002240	-0.001523	-0.002084	0.009471	-0.142563	-0.073300	0.209967	0.017315	0.159349	0.164779	0.057012	0.083594	0.096586	0.024530	0.207019	0.103410	-0.096681	0.233728	0.026521	0.007953	0.002493	0.224089	0.031475	0.121366	0.320786	-0.248368	0.099880	0.238709	-0.301926	0.112488	0.320872	-0.394679	-0.139530	0.304982	-0.319386	-0.158944	
201	2.0100	0.020397	0.098800	0.165944	0.026450	-0.117762	0.231626	0.002169	-0.001523	-0.002218	0.009492	-0.142533	-0.073406	0.209909	0.017263	0.159125	0.164733	0.056986	0.083409	0.096577	0.024649	0.206955	0.103387	-0.096587	0.233740	0.026467	0.007953	0.002391	0.224001	0.031413	0.121193	0.321269	-0.247979	0.099858	0.239465	-0.301762	0.112635	0.320935	-0.394689	-0.139428	0.305306	-0.319398	-0.158931	
